<svg width="353" height="340" viewBox="0 0 353 340" fill="none" xmlns="http://www.w3.org/2000/svg">
<path d="M176.5 0C79.072 0 0 76.16 0 170C0 263.84 79.072 340 176.5 340C273.928 340 353 263.84 353 170C353 76.16 273.928 0 176.5 0ZM176.5 68C210.564 68 238.275 94.69 238.275 127.5C238.275 160.31 210.564 187 176.5 187C142.436 187 114.725 160.31 114.725 127.5C114.725 94.69 142.436 68 176.5 68ZM176.5 306C140.671 306 98.3105 292.06 68.129 257.04C99.0448 233.677 137.204 220.98 176.5 220.98C215.796 220.98 253.955 233.677 284.871 257.04C254.689 292.06 212.329 306 176.5 306Z" fill="#616161" fill-opacity="0.54"/>
</svg>
